# xmcd
#
# Track frame offsets: 
#        182
#        16720
#        30987
#        44315
#        63890
#        80492
#        98957
#        121730
#        137927
#
# Disc length: 2086 seconds
#
# Revision: 1
# Processed by: cddbd v1.5.2PL0 Copyright (c) Steve Scherf et al.
# Submitted via: ExactAudioCopyFreeDBPlugin 1.0
#
DISCID=66082409
DTITLE=Johnny Winter - Nothin' But The Blues
DYEAR=1977
DGENRE=
TTITLE0=Tired Of Tryin'
TTITLE1=TV Mama
TTITLE2=Sweet Love And Evil Women
TTITLE3=Everybody's Blues
TTITLE4=Drinkin' Blues
TTITLE5=Mad Blues
TTITLE6=It Was Rainin'
TTITLE7=Bladie Mae
TTITLE8=Walking Thru The Park
EXTD=
EXTT0=
EXTT1=
EXTT2=
EXTT3=
EXTT4=
EXTT5=
EXTT6=
EXTT7=
EXTT8=
PLAYORDER=
